HIERARCHY
ROOT Hips
{
	OFFSET 0.000000 0.000000 0.000000
	CHANNELS 6 Xposition Yposition Zposition Zrotation Yrotation Xrotation 
	JOINT LHipJoint
	{
		OFFSET 0.000000 0.000000 0.000000
		CHANNELS 3 Zrotation Yrotation Xrotation
		JOINT LeftUpLeg
		{
			OFFSET 1.363060 -1.794630 0.839290
			CHANNELS 3 Zrotation Yrotation Xrotation
			JOINT LeftLeg
			{
				OFFSET 2.448110 -6.726130 0.000000
				CHANNELS 3 Zrotation Yrotation Xrotation
				JOINT LeftFoot
				{
					OFFSET 2.562200 -7.039590 0.000000
					CHANNELS 3 Zrotation Yrotation Xrotation
					JOINT LeftToeBase
					{
						OFFSET 0.157640 -0.433110 2.322550
						CHANNELS 3 Zrotation Yrotation Xrotation
						End Site
						{
							OFFSET 0.000000 0.000000 0.000000
						}
					}
				}
			}
		}
	}
	JOINT RHipJoint
	{
		OFFSET 0.000000 0.000000 0.000000
		CHANNELS 3 Zrotation Yrotation Xrotation
		JOINT RightUpLeg
		{
			OFFSET -1.305520 -1.794630 0.839290
			CHANNELS 3 Zrotation Yrotation Xrotation
			JOINT RightLeg
			{
				OFFSET -2.542530 -6.985550 0.000000
				CHANNELS 3 Zrotation Yrotation Xrotation
				JOINT RightFoot
				{
					OFFSET -2.568260 -7.056230 0.000000
					CHANNELS 3 Zrotation Yrotation Xrotation
					JOINT RightToeBase
					{
						OFFSET -0.164730 -0.452590 2.363150
						CHANNELS 3 Zrotation Yrotation Xrotation
						End Site
						{
							OFFSET 0.000000 0.000000 0.000000
						}
					}
				}
			}
		}
	}
	JOINT LowerBack
	{
		OFFSET 0.000000 0.000000 0.000000
		CHANNELS 3 Zrotation Yrotation Xrotation
		JOINT Spine
		{
			OFFSET 0.028270 2.035590 -0.193380
			CHANNELS 3 Zrotation Yrotation Xrotation
			JOINT Spine1
			{
				OFFSET 0.056720 2.048850 -0.042750
				CHANNELS 3 Zrotation Yrotation Xrotation
				JOINT Neck
				{
					OFFSET 0.000000 0.000000 0.000000
					CHANNELS 3 Zrotation Yrotation Xrotation
					JOINT Neck1
					{
						OFFSET -0.054170 1.746240 0.172020
						CHANNELS 3 Zrotation Yrotation Xrotation
						JOINT Head
						{
							OFFSET 0.104070 1.761360 -0.123970
							CHANNELS 3 Zrotation Yrotation Xrotation
							End Site
							{
								OFFSET 0.000000 0.000000 0.000000
							}
						}
					}
				}
				JOINT LeftShoulder
				{
					OFFSET 0.000000 0.000000 0.000000
					CHANNELS 3 Zrotation Yrotation Xrotation
					JOINT LeftArm
					{
						OFFSET 3.362410 1.200890 -0.311210
						CHANNELS 3 Zrotation Yrotation Xrotation
						JOINT LeftForeArm
						{
							OFFSET 4.983000 -0.000000 -0.000000
							CHANNELS 3 Zrotation Yrotation Xrotation
							JOINT LeftHand
							{
								OFFSET 3.483560 -0.000000 -0.000000
								CHANNELS 3 Zrotation Yrotation Xrotation
								JOINT LeftFingerBase
								{
									OFFSET 0.000000 0.000000 0.000000
									CHANNELS 3 Zrotation Yrotation Xrotation
									JOINT LeftHandIndex1
									{
										OFFSET 0.715260 -0.000000 -0.000000
										CHANNELS 3 Zrotation Yrotation Xrotation
										End Site
										{
											OFFSET 0.000000 0.000000 0.000000
										}
									}
								}
								JOINT LThumb
								{
									OFFSET 0.000000 0.000000 0.000000
									CHANNELS 3 Zrotation Yrotation Xrotation
									End Site
									{
										OFFSET 0.000000 0.000000 0.000000
									}
								}
							}
						}
					}
				}
				JOINT RightShoulder
				{
					OFFSET 0.000000 0.000000 0.000000
					CHANNELS 3 Zrotation Yrotation Xrotation
					JOINT RightArm
					{
						OFFSET -3.136600 1.374050 -0.404650
						CHANNELS 3 Zrotation Yrotation Xrotation
						JOINT RightForeArm
						{
							OFFSET -5.241900 -0.000000 -0.000000
							CHANNELS 3 Zrotation Yrotation Xrotation
							JOINT RightHand
							{
								OFFSET -3.444170 -0.000000 -0.000000
								CHANNELS 3 Zrotation Yrotation Xrotation
								JOINT RightFingerBase
								{
									OFFSET 0.000000 0.000000 0.000000
									CHANNELS 3 Zrotation Yrotation Xrotation
									JOINT RightHandIndex1
									{
										OFFSET -0.622530 -0.000000 -0.000000
										CHANNELS 3 Zrotation Yrotation Xrotation
										End Site
										{
											OFFSET 0.000000 0.000000 0.000000
										}
									}
								}
								JOINT RThumb
								{
									OFFSET 0.000000 0.000000 0.000000
									CHANNELS 3 Zrotation Yrotation Xrotation
									End Site
									{
										OFFSET 0.000000 0.000000 0.000000
									}
								}
							}
						}
					}
				}
			}
		}
	}
}
MOTION
Frames: 8
Frame Time: 0.008333
-0.262136 18.638808 10.422796 -9.894700 6.423189 18.227946 4.741805 6.009775 0.956688 -19.253425 -59.307932 27.114974 -4.095337 -2.597626 -4.362637 -7.875288 44.032353 -52.083490 1.733500 8.287500 23.590700 -0.567070 -4.605015 1.572445 24.475336 28.412850 -0.080717 3.765808 -0.344874 2.696582 9.131961 -27.830101 -8.881008 -0.121200 -2.244300 6.181300 5.808094 2.457763 1.924820 12.247335 4.710597 -0.843817 -11.906156 -0.324162 -14.079110 -13.811827 -8.251967 -13.061985 20.268449 -15.266662 37.919447 2.986600 -4.038000 9.680200 -4.012549 -6.562804 2.670698 16.654421 -0.565449 20.645427 21.916756 -30.716526 -12.824516 6.253348 3.358534 -36.782119 -53.203348 4.428119 -9.037800 -7.125000 0.000000 0.000000 -43.306100 6.434900 62.628900 9.395615 7.119298 2.370639 -21.154245 -6.341632 -2.374531 -13.337287 21.288866 -5.992324 -10.183223 0.403009 -6.944601 73.986963 -8.700607 -55.635800 7.125000 0.000000 0.000000 41.473600 7.541100 67.124700 
-0.261504 18.637440 10.428902 -9.820903 6.667418 18.375475 4.750961 5.957804 0.837048 -19.391006 -59.471037 27.251581 -4.087024 -2.604130 -4.415722 -7.840424 43.946507 -52.051785 1.757800 8.342200 23.758500 -0.562935 -4.613834 1.492146 24.412822 28.430202 -0.051749 3.778277 -0.305451 2.559185 9.192890 -28.014348 -9.034891 -0.123400 -2.264200 6.236500 5.691234 2.442438 2.467799 12.210541 4.788315 -2.031471 -11.870231 -0.340455 -14.116659 -13.667844 -8.081123 -12.780555 20.107554 -15.085553 38.157845 2.966500 -3.950700 9.680600 -3.885219 -6.593582 2.788803 17.111045 -0.596508 19.143669 22.132956 -30.929470 -12.891986 6.338540 3.452318 -36.454614 -54.834028 4.593195 -9.763700 -7.125000 0.000000 0.000000 -43.098700 2.571400 66.659200 9.269110 7.218810 2.413751 -21.508327 -6.057449 -5.912198 -13.455523 21.512492 -6.082898 -10.297003 1.148629 -3.692275 73.174976 -9.548830 -55.327000 7.125000 0.000000 0.000000 41.553700 5.687100 66.500000 
-0.260767 18.637019 10.434587 -9.729145 6.936059 18.651137 4.751673 5.891141 0.673652 -19.351792 -59.681882 27.170801 -4.071510 -2.603770 -4.480814 -7.885412 43.964197 -51.978127 1.789000 8.412000 23.972600 -0.557818 -4.610798 1.376012 24.298139 28.539464 -0.099814 3.792172 -0.267773 2.409577 9.273180 -28.254569 -9.265412 -0.129900 -2.323100 6.399400 5.598636 2.442420 3.085644 12.088506 4.911280 -3.552378 -11.809996 -0.353192 -14.137594 -13.546110 -8.045667 -12.825248 19.782944 -15.046085 38.811200 2.912400 -3.930800 9.835000 -3.779602 -6.589419 2.928220 17.422751 -0.600619 17.281654 22.375896 -31.191151 -12.977994 6.425536 3.531014 -35.806427 -56.651883 4.587634 -10.273500 -7.125000 0.000000 0.000000 -43.118500 -2.322100 71.392300 9.155424 7.294567 2.496800 -21.867980 -5.912752 -8.755938 -13.724175 21.933227 -6.284982 -10.295823 2.027141 -0.340400 71.931087 -10.936137 -54.700700 7.125000 0.000000 0.000000 41.758300 2.426900 65.209200 
-0.259293 18.637229 10.440904 -9.709961 7.232637 18.940398 4.766516 5.831870 0.515326 -19.193551 -59.909003 27.023793 -4.052949 -2.597853 -4.539944 -7.993439 44.049134 -51.854854 1.800800 8.438300 24.053400 -0.543338 -4.604455 1.266260 24.268860 28.678095 -0.142889 3.805686 -0.229602 2.259812 9.363141 -28.532158 -9.524486 -0.134200 -2.360900 6.504100 5.519672 2.449561 3.641096 12.088887 5.042704 -4.992262 -11.808316 -0.367168 -14.098540 -13.688591 -8.011965 -12.726648 19.760944 -15.047114 39.175932 2.954200 -3.926900 9.936200 -3.676825 -6.583498 3.045681 17.641817 -0.596140 14.822048 22.614375 -31.454374 -13.099340 6.463094 3.565632 -35.361817 -57.917318 4.606891 -10.691500 -7.125000 0.000000 0.000000 -43.324200 -5.676800 74.472100 9.038946 7.330205 2.586135 -22.240934 -5.905278 -11.277796 -14.094553 22.431838 -6.546917 -10.177615 2.933657 3.171908 70.578917 -12.304992 -53.723800 7.125000 0.000000 0.000000 42.092600 -1.063900 63.601300 
-0.256451 18.637124 10.446694 -9.725713 7.537332 19.232831 4.784760 5.773507 0.365162 -18.983691 -60.134162 26.839981 -4.033405 -2.582432 -4.567938 -8.123680 44.141233 -51.692858 1.779800 8.391500 23.909500 -0.524724 -4.599017 1.164275 24.271613 28.863156 -0.194011 3.817730 -0.203225 2.144545 9.440951 -28.778574 -9.840086 -0.147100 -2.472000 6.812100 5.467684 2.471849 4.172529 12.125839 5.186989 -6.328777 -11.835253 -0.369096 -14.043893 -13.736386 -7.963616 -12.439895 19.748196 -15.011303 39.093569 2.970300 -3.933100 9.896200 -3.586867 -6.602472 3.143274 17.866920 -0.571847 12.068111 22.872597 -31.746143 -13.292236 6.411027 3.559691 -35.513012 -58.282076 4.823959 -11.211900 -7.125000 0.000000 0.000000 -43.353000 -6.044200 74.784000 8.938522 7.382944 2.657118 -22.472382 -5.758226 -15.096683 -14.411149 22.859054 -6.774184 -9.950075 4.031147 7.969015 69.320182 -13.427935 -52.829200 7.125000 0.000000 0.000000 42.501700 -4.277800 61.831900 
-0.252872 18.636492 10.450168 -9.665200 7.810090 19.550521 4.777495 5.712026 0.214346 -18.817616 -60.362787 26.625217 -4.015028 -2.562464 -4.581427 -8.201285 44.194111 -51.594208 1.753100 8.331600 23.725900 -0.516411 -4.592884 1.052497 24.183044 29.138420 -0.248629 3.830772 -0.184221 2.052347 9.523588 -29.026146 -10.259695 -0.177000 -2.709700 7.471600 5.428665 2.478293 4.767225 11.987476 5.299064 -7.693292 -11.793002 -0.377926 -14.083874 -13.791522 -8.052165 -12.460301 19.555984 -15.109231 39.346760 2.941200 -4.010600 9.982000 -3.484066 -6.598306 3.235405 18.066741 -0.524479 9.287958 23.070533 -32.009772 -13.475401 6.362222 3.517507 -35.754796 -58.171780 5.237064 -11.978900 -7.125000 0.000000 0.000000 -43.241100 -4.711500 73.556600 8.849652 7.418841 2.743100 -22.729032 -5.678195 -18.669447 -14.739737 23.289516 -7.003630 -9.602946 5.017034 11.999354 67.733126 -14.835887 -51.659500 7.125000 0.000000 0.000000 43.273600 -8.784800 58.885400 
-0.250556 18.635440 10.453221 -9.644480 8.060705 19.822103 4.787349 5.660842 0.091686 -18.644067 -60.555953 26.447873 -4.002564 -2.561946 -4.619796 -8.159720 44.119522 -51.601980 1.753600 8.332700 23.729300 -0.487312 -4.593031 0.963990 24.126988 29.426559 -0.272278 3.843456 -0.161672 1.953082 9.606864 -29.279491 -10.669900 -0.203900 -2.907600 8.021700 5.302281 2.494160 5.315956 12.095136 5.408853 -8.803918 -11.751449 -0.400473 -14.220829 -13.909459 -8.223210 -12.890007 19.175002 -15.242870 40.002773 2.885300 -4.107900 10.227700 -3.442111 -6.577089 3.313145 18.117286 -0.470141 6.141799 23.224267 -32.231578 -13.639103 6.411984 3.409415 -35.170630 -58.048619 5.617865 -12.705800 -7.125000 0.000000 0.000000 -43.165100 -3.522600 72.461000 8.736988 7.456703 2.844418 -22.931809 -5.578930 -22.689672 -15.126654 23.773797 -7.267708 -9.149111 5.892069 15.639248 66.012619 -16.281716 -50.332400 7.125000 0.000000 0.000000 44.511600 -13.951800 54.847500 
-0.249608 18.634703 10.456590 -9.722566 8.343003 20.032927 4.847634 5.616819 -0.020510 -18.417836 -60.731672 26.284468 -3.991506 -2.564973 -4.647963 -8.154421 44.067687 -51.561962 1.777700 8.386900 23.895600 -0.416411 -4.601524 0.904928 24.163361 29.700979 -0.253081 3.855499 -0.132405 1.835310 9.688141 -29.541508 -11.058238 -0.224800 -3.051700 8.422800 5.031144 2.523234 5.846130 12.728999 5.556695 -9.734162 -11.832297 -0.435957 -14.295632 -14.209672 -8.157203 -12.785373 18.983398 -15.067707 40.014106 2.923600 -4.084700 10.246900 -3.464952 -6.554761 3.374123 17.964562 -0.359858 2.367761 23.472948 -32.496481 -13.891530 6.569265 3.196188 -33.496530 -57.987652 5.983071 -13.476300 -7.125000 0.000000 0.000000 -43.120700 -2.596200 71.602100 8.548657 7.473680 2.942068 -23.211908 -5.544460 -26.526473 -15.580088 24.289489 -7.559191 -8.676899 6.523330 18.449616 64.300817 -17.501944 -48.740800 7.125000 0.000000 0.000000 46.091300 -18.771500 50.397200 
